<?xml version="1.0" encoding="utf-8"?>
<!-- Generator: Adobe Illustrator 25.2.1, SVG Export Plug-In . SVG Version: 6.00 Build 0)  -->
<svg version="1.1"
	 id="svg8" xmlns:cc="http://creativecommons.org/ns#" xmlns:dc="http://purl.org/dc/elements/1.1/" xmlns:inkscape="http://www.inkscape.org/namespaces/inkscape" xmlns:rdf="http://www.w3.org/1999/02/22-rdf-syntax-ns#" xmlns:sodipodi="http://sodipodi.sourceforge.net/DTD/sodipodi-0.dtd" xmlns:svg="http://www.w3.org/2000/svg"
	 xmlns="http://www.w3.org/2000/svg" xmlns:xlink="http://www.w3.org/1999/xlink" x="0px" y="0px" viewBox="0 0 579.2 199.7"
	 style="enable-background:new 0 0 579.2 199.7;" xml:space="preserve">
<style type="text/css">
	.st0{fill:#FFFFFF;}
	.st1{fill:#FFFFFF;fill-opacity:0;}
</style>
<sodipodi:namedview  bordercolor="#666666" borderopacity="1.0" fit-margin-bottom="1" fit-margin-left="2" fit-margin-right="2" fit-margin-top="1.8" id="base" inkscape:current-layer="layer1" inkscape:cx="835.51138" inkscape:cy="163.18668" inkscape:document-units="mm" inkscape:pageopacity="0.0" inkscape:pageshadow="2" inkscape:window-height="1017" inkscape:window-maximized="1" inkscape:window-width="1920" inkscape:window-x="-8" inkscape:window-y="-8" inkscape:zoom="0.98994949" pagecolor="#ffffff" showgrid="false" showguides="false">
	</sodipodi:namedview>
<g id="layer1" transform="translate(-4.1490869,-125.55907)" inkscape:groupmode="layer" inkscape:label="Livello 1">
	<path id="path841-6" inkscape:connector-curvature="0" class="st0" d="M329.6,134.7l11.8,0.1c0,0,12.5,0.1,12.9,9.2
		c0.4,9.1-3.6,12.6-11.2,12.9c-7.7,0.3-14.1,0.1-14.1,0.1v-1.7l10.9,0.2c0,0,9.6-1,9.6-7.1c0-6.1-1.1-7.1-1.1-7.1s-2.4-4.5-8.7-5
		c-6.3-0.5-12.6,0.1-12.6,0.1L329.6,134.7z"/>
	<path id="path845-7" inkscape:connector-curvature="0" class="st0" d="M405.7,134.4v2.2h10.2v41.9h4.6v-41.9h10.2v-2.3L405.7,134.4
		z"/>
	<path id="path889" inkscape:connector-curvature="0" sodipodi:nodetypes="cccccccccccc" class="st0" d="M436.9,134.6h3.5v35
		c0,0,1.5,8.2,10.2,7.4c6.6-0.5,12.1-2.5,12.1-8.3c-0.1-4,0-34,0-34h2v35.2c0,0,0.4,8.4-11.8,9.2c-8.6,0.8-14.8-2.8-15.8-8.7
		C436.4,165.3,436.9,134.6,436.9,134.6L436.9,134.6z"/>
	<path id="path891" inkscape:connector-curvature="0" sodipodi:nodetypes="cccccccccscc" class="st0" d="M479.2,134.5h11.4
		c0,0,18.6,0.5,19.1,19.2c-0.1,8.5,1.3,13.7-13.7,23.4l-19.7,0.8l1.2-2.1h15.4c0,0,3.4,3.9,9.7-6.2c5.8-12.5,0.6-25.8,0.6-25.8
		s-4.5-6.6-12.3-7c-7.7-0.4-12-0.3-12-0.3L479.2,134.5z"/>
	<rect id="rect893" x="476.3" y="134.5" class="st0" width="2.9" height="43.4"/>
	<rect id="rect897" x="518.9" y="134.4" class="st0" width="4.7" height="43.4"/>
	<path id="path899" inkscape:connector-curvature="0" sodipodi:nodetypes="ccccccscc" class="st0" d="M532.6,158.6l3.3,0.4
		c0,0-2.5-24.2,16.3-23.5c18.8,0.7,16,26.9,16,26.9l2,0.3l1.3-9.3c0,0-3.3-18.9-19.6-19.2c-16.1-0.4-19.2,18.4-19.2,18.4
		L532.6,158.6z"/>
	<path id="path899-1" inkscape:connector-curvature="0" sodipodi:nodetypes="ccccccscc" class="st0" d="M571.5,153.3l-3.4,1.7
		c0,0,2.4,24.9-16.3,24.2c-18.7-0.7-15.8-26.7-15.8-26.7l-3.3-0.1l0,9.1c0,0,3.3,18.7,19.5,19.1c16,0.4,19.3-19.9,19.3-19.9
		L571.5,153.3z"/>
	<path id="path916" inkscape:connector-curvature="0" sodipodi:nodetypes="ccccccccccc" class="st1" d="M399.6,137.8l-1,2.6
		c0,0-7.9-11.6-16-0.9c-5.3,17.1,27.7,13.1,16.2,35c-5.1,6.7-15.5,3.6-15.5,3.6l-5-3.7l0.9-2.7c0,0,11.4,12.5,17.9-1.4
		c1.4-17-26.5-10.4-16.3-31.4C388.4,127.8,399.6,137.8,399.6,137.8L399.6,137.8z"/>
	<path id="path856" inkscape:connector-curvature="0" sodipodi:nodetypes="ccscscccccc" class="st0" d="M399.6,137.8l-1,2.6
		c0,0-6.1-7.8-13.4-3.6c-7.3,4.2-3.3,15.8,4.2,18.3c7.5,2,14.2,5.5,12,16.1c-0.5,2.2-12.4,16-23.2,3.1l0.9-2.7
		c0,0,10.5,11.8,16.4,1.5c6.7-12.4-5.3-14.8-7.1-15.5s-10.6-3.7-10.1-11.4C378.8,138.6,382.9,129.6,399.6,137.8"/>
	<path id="path32" inkscape:connector-curvature="0" class="st0" d="M492.9,175.8c0,0,4.4,0.5,7.6-3.1c3.2-3.5,0.5,0.7,0.5,0.7
		l-5,3.7l-2.7,0L492.9,175.8z"/>
	<path id="path891-5" inkscape:connector-curvature="0" sodipodi:nodetypes="cccccccccscc" class="st0" d="M479.2,177.9h11.4
		c0,0,18.6-0.5,19.1-19.2c-0.1-8.5,1.2-12.2-13.8-21.9l-19.6-2.2l1.2,2.1h15.4c0,0,3.4-3.9,9.7,6.2c5.8,12.5,0.6,25.8,0.6,25.8
		s-4.5,6.5-12.3,6.9c-7.7,0.4-12,0.3-12,0.3L479.2,177.9z"/>
	<path id="path854" inkscape:connector-curvature="0" sodipodi:nodetypes="csccc" class="st0" d="M532.7,161.5c0,0,5.1-2.8,0-9.1
		c0,0,1.8,3.2,1.8,3.2l-0.4-4.3l0.3,11.7"/>
</g>
<g id="layer2" transform="translate(-4.1490869,-125.55907)" inkscape:groupmode="layer" inkscape:label="Livello 2">
	<path id="path21" inkscape:connector-curvature="0" sodipodi:nodetypes="ccccscscccscsccscccsccccscc" class="st0" d="M115.1,186.4
		c0,0,16.5-2.4,20.3,6.5c3.8,8.9,5.5,14.4-2.5,18.9c-8,4.5-55.5,24.2-55.5,24.2s-35.8,14.6-58.1-15.2s1.9-51.9,1.9-51.9
		s8-8.3,27.7-16.1c19.7-7.8,53-19.7,53-19.7s31.1-6.8,53.8,1.7c22.7,8.5,37.5,26.5,37.5,26.5s16.7,18.2,15.9,40.9
		c-0.8,23.2-7,27.5-7,27.5s-12.1,25.9-41.5,36.7s-36.6,15-36.6,15l12.9,20.3c0,0,7.4,15-7.8,19.5c-15.2,4.5-22.5-6.3-22.5-6.3
		l-31.1-46l77.8-34.3c0,0,25-17.4,22.5-35.2c-2.4-17.1-11.6-28.6-23.9-35.4c-14.4-8.9-27.1-6.6-27.1-6.6s-13.8,2.1-30.1,8.9
		c-18.2,6.8-41.1,17-41.1,17s-13.8,4.4-9.8,15.3c4,11,15.9,10,15.9,10L115.1,186.4z"/>
	<rect id="rect831" x="243.2" y="214.2" class="st0" width="11.4" height="98.9"/>
	<path id="path841" inkscape:connector-curvature="0" class="st0" d="M254.5,214.2l24.7,0.1c0,0,26.3,0.3,27.1,21.2
		c0.8,20.9-7.5,28.9-23.6,29.7c-16.1,0.8-29.5,0.3-29.5,0.3v-4L276,262c0,0,20.1-2.4,20.1-16.3s-2.4-16.3-2.4-16.3
		s-5.1-10.4-18.2-11.5c-13.1-1.1-26.5,0.3-26.5,0.3L254.5,214.2z"/>
	<rect id="rect833" x="398.8" y="213.8" class="st0" width="11.4" height="98.9"/>
	<path id="path835" inkscape:connector-curvature="0" class="st0" d="M339.4,226.3l34.9,86.7h10.6l-39.8-103L339.4,226.3z"/>
	<path id="path837" inkscape:connector-curvature="0" class="st0" d="M303.4,312.3L345.1,210l3,10.2l-8.7,6.1l0,0l0,0l2.7,6.4
		l-31.5,80.1L303.4,312.3z"/>
	<path id="path839" inkscape:connector-curvature="0" class="st0" d="M361.2,277.2H321v4h43.1L361.2,277.2z"/>
	<path id="path845" inkscape:connector-curvature="0" class="st0" d="M521.9,214.3v4.8h22.8v93.2h10.2v-93.2h22.8V214L521.9,214.3z"
		/>
	<path id="path843" inkscape:connector-curvature="0" class="st0" d="M437.3,213.8v98h5.4v-83l66.7,86.5V214h-5.6v76.3l-59.2-76.9
		L437.3,213.8z"/>
	<path id="path847" inkscape:connector-curvature="0" sodipodi:nodetypes="ccsccccccsccc" class="st0" d="M274.3,143.3l2.9-0.1
		c0,0-9.3-10.4-18.4-8.9c-9.9,1.6-13.2,6.5-13.2,6.5s-4.1,4.1-4.6,12.5c-0.5,6.3,0.4,9.1,0.4,9.1s2.7,16.7,16.5,16.9
		c13.8,0.1,19.2-8.2,19.2-8.2l-2-2.3c0,0-22.2,20.6-29.1-3.7c-7.7-27.4,14.4-29.4,14.4-29.4S267.7,134.6,274.3,143.3L274.3,143.3z"
		/>
	<path id="path849" inkscape:connector-curvature="0" sodipodi:nodetypes="ccccccc" class="st0" d="M284.6,135h4.8v39.9H305l-0.1,3
		l-20.3,0.1L284.6,135z"/>
	<path id="path851" inkscape:connector-curvature="0" class="st0" d="M309.5,134.7h4.8v43.1h-4.3L309.5,134.7z"/>
	<rect id="rect870" x="327" y="134.6" class="st0" width="4" height="42.9"/>
</g>
</svg>
