<?xml version="1.0" encoding="utf-8"?>
<!-- Generator: Adobe Illustrator 25.2.1, SVG Export Plug-In . SVG Version: 6.00 Build 0)  -->
<svg version="1.1" id="Layer_1" xmlns="http://www.w3.org/2000/svg" xmlns:xlink="http://www.w3.org/1999/xlink" x="0px" y="0px"
	 viewBox="0 0 512 512" style="enable-background:new 0 0 512 512;" xml:space="preserve">
<style type="text/css">
	.st0{fill:#FFFFFF;}
</style>
<g>
	<g>
		<path class="st0" d="M31,39.5v438.7h450V39.5H31z M49.7,58.2h412.5v401.2H49.7V58.2z M195.5,343.6c0,1.8-0.3,2.4-2.4,2.4h-28.9
			c-1.8,0-2.4-0.9-2.4-2.4V142.2c0-1.8,0.9-2.5,2.4-2.5h29.2c1.5,0,2.1,0.7,2.1,2.2L195.5,343.6L195.5,343.6z M228.8,270.9
			c0-44.8,29.5-79.8,76.9-79.8c4,0,6.2,0,9.9,0.2v-49.7c0-1.2,1-1.9,1.8-1.9h30.5c1.6,0,1.9,0.7,1.9,1.6v175.4c0,5.2,0,11.7,1,18.8
			c0,1.2-0.4,1.5-1.6,2.2c-16.1,7.7-33.2,11.1-49.2,11.1C258.3,348.9,228.7,323.2,228.8,270.9L228.8,270.9z M315.6,221.8
			c-2.8-1.2-6.5-1.9-11.1-1.9c-24.1,0-41,18.5-41,49.5c0,35.3,17.2,49.5,38.9,49.5c4.6,0,9.6-0.6,13.3-2.2L315.6,221.8L315.6,221.8z
			"/>
	</g>
</g>
</svg>
