<?xml version="1.0" encoding="utf-8"?>
<!-- Generator: Adobe Illustrator 25.2.2, SVG Export Plug-In . SVG Version: 6.00 Build 0)  -->
<svg version="1.1" id="Layer_1" xmlns="http://www.w3.org/2000/svg" xmlns:xlink="http://www.w3.org/1999/xlink" x="0px" y="0px"
	 viewBox="0 0 24 17" style="enable-background:new 0 0 24 17;" xml:space="preserve">
<style type="text/css">
	.st0{display:none;fill:#FFFFFF;}
	.st1{fill-rule:evenodd;clip-rule:evenodd;fill:#FFFFFF;}
</style>
<desc>Created with Sketch.</desc>
<g id="Icons">
	<g id="Outlined" transform="translate(-202.000000, -2461.000000)">
		<g id="Hardware" transform="translate(100.000000, 2404.000000)">
			<g id="Outlined-_x2F_-Hardware-_x2F_-laptop_x5F_mac" transform="translate(102.000000, 54.000000)">
				<g>
					<polygon id="Path" class="st0" points="0,0 24,0 24,24 0,24 					"/>
					<path id="_xD83D__xDD39_-Icon-Color" class="st1" d="M20,18c1.1,0,2-0.9,2-2l0-11c0-1.1-0.9-2-2-2H4C2.9,3,2,3.9,2,5v11
						c0,1.1,0.9,2,2,2H0c0,1.1,0.9,2,2,2h20c1.1,0,2-0.9,2-2H20z M4,5h16v11H4V5z M12,19c-0.6,0-1-0.5-1-1s0.4-1,1-1s1,0.5,1,1
						S12.6,19,12,19z"/>
				</g>
			</g>
		</g>
	</g>
</g>
</svg>
