<?xml version="1.0" encoding="utf-8"?>
<!-- Generator: Adobe Illustrator 25.2.1, SVG Export Plug-In . SVG Version: 6.00 Build 0)  -->
<svg version="1.1" id="Layer_1" xmlns="http://www.w3.org/2000/svg" xmlns:xlink="http://www.w3.org/1999/xlink" x="0px" y="0px"
	 viewBox="0 0 512 512" style="enable-background:new 0 0 512 512;" xml:space="preserve">
<style type="text/css">
	.st0{fill:#FFFFFF;}
</style>
<g>
	<path class="st0" d="M260.1,32C138.6,32,40.1,129.7,40.1,250.2c0,41.2,11.5,79.8,31.6,112.7L32,480l121.8-38.7
		c31.5,17.3,67.7,27.1,106.3,27.1c121.5,0,219.9-97.7,219.9-218.2C480,129.7,381.5,32,260.1,32z M369.4,333.1
		c-5.2,12.8-28.6,24.5-38.9,25.1c-10.3,0.5-10.6,8-66.8-16.4c-56.2-24.4-90.1-83.8-92.7-87.7c-2.7-3.8-21.8-31-20.7-58.5
		c1-27.4,16-40.3,21.4-45.7c5.4-5.4,11.5-6.4,15.2-6.4c4.4-0.1,7.3-0.1,10.6,0c3.3,0.1,8.2-0.7,12.4,10.6
		c4.3,11.3,14.4,39.2,15.7,42c1.3,2.8,2.1,6.1,0.1,9.8c-2,3.7-3,5.9-6,9.1c-2.9,3.1-6.2,7-8.8,9.4c-2.9,2.7-6,5.6-2.9,11.3
		c3.1,5.7,13.7,24.4,29.8,39.7c20.7,19.8,38.6,26.3,44.1,29.3c5.5,3,8.8,2.7,12.2-0.9c3.4-3.6,14.6-15.7,18.6-21.2
		c4-5.4,7.7-4.4,12.7-2.3c5.1,2.1,32.2,16.6,37.7,19.6c5.5,3,9.2,4.5,10.5,6.9C375,309.1,374.6,320.3,369.4,333.1z"/>
</g>
</svg>
