<?xml version="1.0" encoding="utf-8"?>
<!-- Generator: Adobe Illustrator 25.2.1, SVG Export Plug-In . SVG Version: 6.00 Build 0)  -->
<svg version="1.1" id="Layer_1" xmlns="http://www.w3.org/2000/svg" xmlns:xlink="http://www.w3.org/1999/xlink" x="0px" y="0px"
	 viewBox="0 0 1920 1080" style="enable-background:new 0 0 1920 1080;" xml:space="preserve">
<style type="text/css">
	.st0{fill:#FFFFFF;}
</style>
<g>
	<g>
		<path class="st0" d="M1541,196.1L1335.3,87.6l-317.8-9.2v-0.7H901.3v579.5l-502-562.9h-20.8v769l149.4,196.4L525.1,364
			l439.8,499.3h36.8v0.7h356.8l176.2-237.7l-6.2-218.2l-149.6-6.2c0,0,162.1-95.6,162.1-106C1539.6,284.6,1541,196.1,1541,196.1z
			 M1209.2,749.2h-114.8V403.4h114.8l107.4,4.7l8.8,205.5L1209.2,749.2z M1326,292.5l-231.7-5.3V159.3l216,5.6l94.6,64.6L1326,292.5
			z"/>
	</g>
</g>
</svg>
