<?xml version="1.0" encoding="utf-8"?>
<!-- Generator: Adobe Illustrator 25.2.1, SVG Export Plug-In . SVG Version: 6.00 Build 0)  -->
<svg version="1.1" id="Layer_1" xmlns="http://www.w3.org/2000/svg" xmlns:xlink="http://www.w3.org/1999/xlink" x="0px" y="0px"
	 viewBox="0 0 512 512" style="enable-background:new 0 0 512 512;" xml:space="preserve">
<style type="text/css">
	.st0{fill:#FFFFFF;}
</style>
<g>
	<path class="st0" d="M391.6,64H57.6c-4.5,0-9.6,3.7-9.6,8.2v214.2c0,4.4,5.1,8.6,9.6,8.6H115v88.9l90.1-88.9h186.4
		c4.5,0,7.4-4.2,7.4-8.6V72.2C399,67.7,396,64,391.6,64z"/>
	<path class="st0" d="M456.4,127H424v166.6c0,16-6.9,26.4-25.2,26.4H218.1l-38.9,39h129.7l90.1,89v-89h57.4c4.5,0,7.6-4.3,7.6-8.7
		V136.1C464,131.7,460.9,127,456.4,127z"/>
</g>
</svg>
