<?xml version="1.0" encoding="utf-8"?>
<!-- Generator: Adobe Illustrator 25.2.1, SVG Export Plug-In . SVG Version: 6.00 Build 0)  -->
<svg version="1.1" id="Layer_1" xmlns="http://www.w3.org/2000/svg" xmlns:xlink="http://www.w3.org/1999/xlink" x="0px" y="0px"
	 viewBox="0 0 512 512" style="enable-background:new 0 0 512 512;" xml:space="preserve">
<style type="text/css">
	.st0{fill:#FFFFFF;}
</style>
<path class="st0" d="M256,48C141.1,48,48,141.1,48,256s93.1,208,208,208c114.9,0,208-93.1,208-208S370.9,48,256,48z M234.5,433
	c-39.5-4.7-76-22.4-104.5-50.9C96.3,348.4,77.7,303.6,77.7,256c0-42.9,15-83.4,42.6-115.7c0.7,8.5,2.5,17.6,2,24.2
	c-1.6,23.8-4,38.7,9.9,58.8c5.4,7.8,6.8,19,9.4,28.1c2.6,8.9,12.9,13.5,20,19c14.4,11,28.1,23.8,43.3,33.5
	c10,6.4,16.3,9.6,13.4,21.8c-2.4,9.9-3,15.9-8.1,24.7c-1.6,2.7,5.9,19.9,8.4,22.4c7.5,7.5,14.9,14.4,23.1,21.1
	C254.4,404.4,240.5,418,234.5,433z M382.1,382.1c-25.6,25.6-57.7,42.5-92.6,49.1c4.9-12.2,13.7-23.1,21.9-29.4
	c7.1-5.5,16-16,19.7-24.4c3.7-8.3,8.6-15.6,13.6-23.2c7.1-10.9-17.4-27.3-25.4-30.8c-17.9-7.8-31.3-18.2-47.2-29.4
	c-11.3-8-34.3,4.2-47-1.4c-17.5-7.6-31.9-20.9-47.1-32.3c-15.7-11.8-14.9-25.6-14.9-43c12.3,0.5,29.8-3.4,37.9,6.5
	c2.6,3.1,11.4,17,17.3,12.1c4.8-4-3.6-20.2-5.2-24.1c-5-11.7,11.4-16.3,19.8-24.2c11-10.4,34.5-26.6,32.6-34s-23.5-28.5-36.2-25.2
	c-1.9,0.5-18.7,18.1-21.9,20.9c0.1-5.7,0.2-11.5,0.3-17.2c0.1-3.6-6.8-7.4-6.5-9.7c0.8-5.9,17.3-16.6,21.4-21.4
	c-2.9-1.8-12.7-10.2-15.6-9c-7.2,3-15.3,5.1-22.4,8c0-2.5-0.3-4.8-0.7-7.1c14.4-6.4,29.6-10.8,45.3-13.2l14.1,5.7l9.9,11.8l9.9,10.2
	l8.7,2.8l13.8-13l-3.6-9.3v-8.3c27.2,4,53,14.1,75.5,29.8c-4,0.4-8.5,1-13.5,1.6c-2.1-1.2-4.7-1.8-7-2.6c6.5,14,13.3,27.9,20.3,41.7
	c7.4,14.8,23.8,30.7,26.7,46.3c3.4,18.4,1,35.1,2.9,56.8c1.8,20.9,23.5,44.6,23.5,44.6s10,3.4,18.4,2.2
	C421.1,330.8,405.1,359,382.1,382.1z"/>
</svg>
