<?xml version="1.0" encoding="utf-8"?>
<!-- Generator: Adobe Illustrator 25.2.1, SVG Export Plug-In . SVG Version: 6.00 Build 0)  -->
<svg version="1.1" id="Layer_1" xmlns="http://www.w3.org/2000/svg" xmlns:xlink="http://www.w3.org/1999/xlink" x="0px" y="0px"
	 viewBox="0 0 512 512" style="enable-background:new 0 0 512 512;" xml:space="preserve">
<style type="text/css">
	.st0{fill:#FFFFFF;}
</style>
<path class="st0" d="M409.6,64H102.4C81.3,64,64,81.3,64,102.4v307.2c0,21.1,17.3,38.4,38.4,38.4h307.2c21.1,0,38.4-17.3,38.4-38.4
	V102.4C448,81.3,430.7,64,409.6,64z M179.2,409.6h-76.8v-76.8h76.8V409.6z M179.2,294.4h-76.8v-76.8h76.8V294.4z M179.2,179.2h-76.8
	v-76.8h76.8V179.2z M294.4,409.6h-76.8v-76.8h76.8V409.6z M294.4,294.4h-76.8v-76.8h76.8V294.4z M294.4,179.2h-76.8v-76.8h76.8
	V179.2z M409.6,409.6h-76.8v-76.8h76.8L409.6,409.6L409.6,409.6z M409.6,294.4h-76.8v-76.8h76.8L409.6,294.4L409.6,294.4z
	 M409.6,179.2h-76.8v-76.8h76.8L409.6,179.2L409.6,179.2z"/>
</svg>
