<?xml version="1.0" encoding="utf-8"?>
<!-- Generator: Adobe Illustrator 25.2.1, SVG Export Plug-In . SVG Version: 6.00 Build 0)  -->
<svg version="1.1" id="Layer_1" xmlns="http://www.w3.org/2000/svg" xmlns:xlink="http://www.w3.org/1999/xlink" x="0px" y="0px"
	 viewBox="0 0 512 512" style="enable-background:new 0 0 512 512;" xml:space="preserve">
<style type="text/css">
	.st0{fill:#FFFFFF;}
</style>
<path class="st0" d="M337.5,232c33.6,0,61.1-27,61.1-60c0-33-27.5-60-61.1-60s-61.1,27-61.1,60C276.4,205,303.9,232,337.5,232z
	 M174.5,232c33.6,0,61.1-27,61.1-60c0-33-27.5-60-61.1-60s-61.1,27-61.1,60C113.5,205,140.9,232,174.5,232z M174.5,276
	C126.7,276,32,299,32,346v54h288v-54C320,299,222.4,276,174.5,276z M337.5,287c-6.1,0-10.3,0-17.5,1c23.4,17,32,28,32,58v54h128v-54
	C480,299,385.3,287,337.5,287z"/>
</svg>
