<?xml version="1.0" encoding="utf-8"?>
<!-- Generator: Adobe Illustrator 25.2.1, SVG Export Plug-In . SVG Version: 6.00 Build 0)  -->
<svg version="1.1" id="Layer_1" xmlns="http://www.w3.org/2000/svg" xmlns:xlink="http://www.w3.org/1999/xlink" x="0px" y="0px"
	 viewBox="0 0 512 512" style="enable-background:new 0 0 512 512;" xml:space="preserve">
<style type="text/css">
	.st0{fill:#FFFFFF;}
</style>
<g transform="matrix(1.000000125 0 0 1.000000125 159.9999625 83)">
	<path class="st0" d="M241.3-46.4H-49.3c-44.1,0-79.7,35.6-79.7,79.7v279.4c0,44.1,35.6,79.7,79.7,79.7h290.6
		c44.1,0,79.7-35.6,79.7-79.7V33.3C321-10.8,285.4-46.4,241.3-46.4z M294.3,314.5c0,26.5-21.7,48.2-48.2,48.2H-56.1
		c-26.5,0-48.2-21.7-48.2-48.2V26.5c0-26.5,21.7-48.2,48.2-48.2h302.2c26.5,0,48.2,21.7,48.2,48.2V314.5z"/>
	<path class="st0" d="M236.3,112.2v37.3c0,1.5-0.9,2.1-3,2.1c-6.8-0.2-13.7,0.4-20.2,1.9c-5.4,1.1-10.7,2.8-15.8,5.1
		c-3.6,1.7-6.9,3.9-9.6,6.9v95.6c0,1.9-0.8,2.6-2.4,2.6h-36.9c-1.5,0.2-2.8-0.8-3-2.2V156.9c0-4.5,0-9.2-0.2-14.1s-0.2-9.8-0.4-14.6
		c0-4.3-0.4-8.4-0.8-12.8c-0.2-0.9,0.4-1.9,1.3-2.1c0-0.2,0.4-0.2,0.6,0h32.8c1.9,0,3.4,1.3,3.9,3c0.6,1.5,0.9,3,1.1,4.7
		c0.4,1.9,0.8,3.9,0.9,5.8c0.2,2.1,0.4,4.3,0.4,6.8c5.6-6.6,12.4-12,20.1-16.1c8.6-4.9,18.6-7.3,28.5-7.3
		C234.9,110,236.1,110.9,236.3,112.2z"/>
	<path class="st0" d="M115.3,107.8c-3-8.1-7.7-15.4-13.7-21.4C94.5,79.4,85.9,74.2,76.5,71c-10.5-3.9-23.2-5.8-38.6-5.8
		c-5.6,0-11.2,0-17.1,0.2S9.6,65.6,4.5,65.8s-9.8,0.2-14.2,0.4c-4.3,0.2-7.3,0.2-10.5,0.2c-1.3,0-1.9,0.8-1.9,2.1v192.9
		c0,1.7,0.8,2.4,2.2,2.4h36.4c1.3-0.2,2.2-1.3,2.1-2.6v-60.2c3.6,0,6.2,0,8.1,0.2s4.9,0.2,9.4,0.2c15.4,0,29.4-1.7,42.2-6.4
		c12.2-4.5,22.7-12.4,30.2-22.9s11.2-23.8,11.2-39.9C119.6,123.7,118.1,115.6,115.3,107.8z M72.9,152.6c-4.1,4.7-9.4,8.2-15.4,9.9
		c-6.9,2.3-14.2,3.4-21.6,3.4h-9.9c-2.2,0-4.7-0.2-7.3-0.4v-63c1.3-0.2,3.9-0.4,7.7-0.2c3.6-0.2,7.9-0.2,12.8-0.2
		c7.7-0.2,15.2,0.9,22.1,3.8c5.4,2.1,9.9,5.8,13.1,10.7c3,5.1,4.5,10.9,4.3,16.7C78.7,141.5,76.9,147.9,72.9,152.6z"/>
</g>
<path class="st0" d="M275.3,190.8c-3-8.1-7.7-15.4-13.7-21.4c-7.1-6.9-15.7-12.2-25.1-15.4c-10.5-3.9-23.2-5.8-38.6-5.8
	c-5.6,0-11.2,0-17.1,0.2s-11.2,0.2-16.3,0.4s-9.8,0.2-14.2,0.4c-4.3,0.2-7.3,0.2-10.5,0.2c-1.3,0-1.9,0.8-1.9,2.1v192.9
	c0,1.7,0.8,2.4,2.2,2.4h36.4c1.3-0.2,2.2-1.3,2.1-2.6v-60.2c3.6,0,6.2,0,8.1,0.2s4.9,0.2,9.4,0.2c15.4,0,29.4-1.7,42.2-6.4
	c12.2-4.5,22.7-12.4,30.2-22.9s11.2-23.8,11.2-39.9C279.6,206.7,278.1,198.6,275.3,190.8z M232.9,235.6c-4.1,4.7-9.4,8.2-15.4,9.9
	c-6.9,2.3-14.2,3.4-21.6,3.4h-9.9c-2.2,0-4.7-0.2-7.3-0.4v-63c1.3-0.2,3.9-0.4,7.7-0.2c3.6-0.2,7.9-0.2,12.8-0.2
	c7.7-0.2,15.2,0.9,22.1,3.8c5.4,2.1,9.9,5.8,13.1,10.7c3,5.1,4.5,10.9,4.3,16.7C238.7,224.5,236.9,230.9,232.9,235.6z"/>
<path class="st0" d="M396.2,195.2v37.3c0,1.5-0.9,2.1-3,2.1c-6.8-0.2-13.7,0.4-20.2,1.9c-5.4,1.1-10.7,2.8-15.8,5.1
	c-3.6,1.7-6.9,3.9-9.6,6.9v95.6c0,1.9-0.8,2.6-2.4,2.6h-36.9c-1.5,0.2-2.8-0.8-3-2.2V239.9c0-4.5,0-9.2-0.2-14.1s-0.2-9.8-0.4-14.6
	c0-4.3-0.4-8.4-0.8-12.8c-0.2-0.9,0.4-1.9,1.3-2.1c0-0.2,0.4-0.2,0.6,0h32.8c1.9,0,3.4,1.3,3.9,3c0.6,1.5,0.9,3,1.1,4.7
	c0.4,1.9,0.8,3.9,0.9,5.8c0.2,2.1,0.4,4.3,0.4,6.8c5.6-6.6,12.4-12,20.1-16.1c8.6-4.9,18.6-7.3,28.5-7.3
	C394.9,193,396.1,193.9,396.2,195.2z"/>
</svg>
