<?xml version="1.0" encoding="utf-8"?>
<!-- Generator: Adobe Illustrator 25.2.2, SVG Export Plug-In . SVG Version: 6.00 Build 0)  -->
<svg version="1.1" id="Capa_1" xmlns="http://www.w3.org/2000/svg" xmlns:xlink="http://www.w3.org/1999/xlink" x="0px" y="0px"
	 viewBox="0 0 548.2 548.2" style="enable-background:new 0 0 548.2 548.2;" xml:space="preserve">
<style type="text/css">
	.st0{fill:#FFFFFF;}
</style>
<g>
	<path class="st0" d="M534.8,50c-8.9-8.9-19.7-13.4-32.3-13.4H45.7C33.1,36.5,22.4,41,13.4,50C4.5,58.9,0,69.7,0,82.2v383.7
		c0,12.6,4.5,23.3,13.4,32.3c9,8.9,19.7,13.4,32.3,13.4h456.8c12.6,0,23.3-4.5,32.3-13.4c8.9-8.9,13.4-19.7,13.4-32.3V82.2
		C548.2,69.7,543.7,58.9,534.8,50z M109.6,456.8c0,4.9-1.8,9.2-5.4,12.8c-3.6,3.6-7.9,5.4-12.8,5.4H54.8c-4.9,0-9.2-1.8-12.8-5.4
		c-3.6-3.6-5.4-7.9-5.4-12.8v-36.5c0-4.9,1.8-9.2,5.4-12.9c3.6-3.6,7.9-5.4,12.8-5.4h36.5c5,0,9.2,1.8,12.8,5.4
		c3.6,3.6,5.4,7.9,5.4,12.9V456.8z M109.6,347.2c0,4.9-1.8,9.2-5.4,12.8c-3.6,3.6-7.9,5.4-12.8,5.4H54.8c-4.9,0-9.2-1.8-12.8-5.4
		c-3.6-3.6-5.4-7.9-5.4-12.8v-36.5c0-4.9,1.8-9.2,5.4-12.8c3.6-3.6,7.9-5.4,12.8-5.4h36.5c5,0,9.2,1.8,12.8,5.4
		c3.6,3.6,5.4,7.9,5.4,12.8V347.2z M109.6,237.5c0,5-1.8,9.2-5.4,12.9c-3.6,3.6-7.9,5.4-12.8,5.4H54.8c-4.9,0-9.2-1.8-12.8-5.4
		c-3.6-3.6-5.4-7.9-5.4-12.9V201c0-5,1.8-9.2,5.4-12.9c3.6-3.6,7.9-5.4,12.8-5.4h36.5c5,0,9.2,1.8,12.8,5.4
		c3.6,3.6,5.4,7.9,5.4,12.9V237.5z M109.6,127.9c0,4.9-1.8,9.2-5.4,12.9c-3.6,3.6-7.9,5.4-12.8,5.4H54.8c-4.9,0-9.2-1.8-12.8-5.4
		c-3.6-3.6-5.4-7.9-5.4-12.8V91.4c0-5,1.8-9.2,5.4-12.8c3.6-3.6,7.9-5.4,12.8-5.4h36.5c5,0,9.2,1.8,12.8,5.4
		c3.6,3.6,5.4,7.9,5.4,12.8V127.9z M402,456.8c0,4.9-1.8,9.2-5.4,12.8c-3.6,3.6-7.9,5.4-12.9,5.4H164.5c-4.9,0-9.2-1.8-12.8-5.4
		c-3.6-3.6-5.4-7.9-5.4-12.8V310.6c0-4.9,1.8-9.2,5.4-12.8c3.6-3.6,7.9-5.4,12.8-5.4h219.3c4.9,0,9.2,1.8,12.9,5.4
		c3.6,3.6,5.4,7.9,5.4,12.8L402,456.8L402,456.8z M402,237.5c0,5-1.8,9.2-5.4,12.9c-3.6,3.6-7.9,5.4-12.9,5.4H164.5
		c-4.9,0-9.2-1.8-12.8-5.4c-3.6-3.6-5.4-7.9-5.4-12.9V91.4c0-5,1.8-9.2,5.4-12.8c3.6-3.6,7.9-5.4,12.8-5.4h219.3
		c4.9,0,9.2,1.8,12.9,5.4c3.6,3.6,5.4,7.9,5.4,12.8L402,237.5L402,237.5z M511.6,456.8c0,4.9-1.8,9.2-5.4,12.8
		c-3.6,3.6-7.9,5.4-12.9,5.4h-36.5c-4.9,0-9.2-1.8-12.8-5.4c-3.6-3.6-5.4-7.9-5.4-12.8v-36.5c0-4.9,1.8-9.2,5.4-12.9
		c3.6-3.6,7.9-5.4,12.8-5.4h36.5c4.9,0,9.2,1.8,12.9,5.4c3.6,3.6,5.4,7.9,5.4,12.9L511.6,456.8L511.6,456.8z M511.6,347.2
		c0,4.9-1.8,9.2-5.4,12.8c-3.6,3.6-7.9,5.4-12.9,5.4h-36.5c-4.9,0-9.2-1.8-12.8-5.4c-3.6-3.6-5.4-7.9-5.4-12.8v-36.5
		c0-4.9,1.8-9.2,5.4-12.8c3.6-3.6,7.9-5.4,12.8-5.4h36.5c4.9,0,9.2,1.8,12.9,5.4c3.6,3.6,5.4,7.9,5.4,12.8L511.6,347.2L511.6,347.2z
		 M511.6,237.5c0,5-1.8,9.2-5.4,12.9c-3.6,3.6-7.9,5.4-12.9,5.4h-36.5c-4.9,0-9.2-1.8-12.8-5.4c-3.6-3.6-5.4-7.9-5.4-12.9V201
		c0-5,1.8-9.2,5.4-12.9c3.6-3.6,7.9-5.4,12.8-5.4h36.5c4.9,0,9.2,1.8,12.9,5.4c3.6,3.6,5.4,7.9,5.4,12.9L511.6,237.5L511.6,237.5z
		 M511.6,127.9c0,4.9-1.8,9.2-5.4,12.9c-3.6,3.6-7.9,5.4-12.9,5.4h-36.5c-4.9,0-9.2-1.8-12.8-5.4c-3.6-3.6-5.4-7.9-5.4-12.8V91.4
		c0-5,1.8-9.2,5.4-12.8c3.6-3.6,7.9-5.4,12.8-5.4h36.5c4.9,0,9.2,1.8,12.9,5.4c3.6,3.6,5.4,7.9,5.4,12.8L511.6,127.9L511.6,127.9z"
		/>
</g>
</svg>
