<?xml version="1.0" encoding="utf-8"?>
<!-- Generator: Adobe Illustrator 25.2.1, SVG Export Plug-In . SVG Version: 6.00 Build 0)  -->
<svg version="1.1" id="Layer_1" xmlns="http://www.w3.org/2000/svg" xmlns:xlink="http://www.w3.org/1999/xlink" x="0px" y="0px"
	 viewBox="0 0 1195 1195" style="enable-background:new 0 0 1195 1195;" xml:space="preserve">
<style type="text/css">
	.st0{fill:#FFFFFF;}
</style>
<path class="st0" d="M949.3,992h-736c-35.4,0-64-28.7-64-64V544c0,0,167.1,85.9,320,121.1V704c0,17.7,14.3,32,32,32h160
	c17.7,0,32-14.3,32-32v-38.9c152.9-35.2,320-121.1,320-121.1v384C1013.3,963.3,984.7,992,949.3,992z M629.3,608
	c17.7,0,32,14.3,32,32v32c0,17.7-14.3,32-32,32h-96c-17.7,0-32-14.3-32-32v-32c0-17.7,14.3-32,32-32H629.3z M693.3,608
	c0-17.7-14.3-32-32-32h-160c-17.7,0-32,14.3-32,32v28.7c-152.9-36.2-320-124.7-320-124.7V384c0-35.3,28.6-64,64-64h192v-64
	c0-35.3,28.7-64,64-64h224c35.3,0,64,28.7,64,64v64h192c35.3,0,64,28.7,64,64v128c0,0-167.1,88.4-320,124.7V608z M693.3,288
	c0-17.7-14.3-32-32-32h-160c-17.7,0-32,14.3-32,32v32h224V288z"/>
</svg>
