<?xml version="1.0" encoding="utf-8"?>
<!-- Generator: Adobe Illustrator 25.2.1, SVG Export Plug-In . SVG Version: 6.00 Build 0)  -->
<svg version="1.1" id="Layer_1" xmlns="http://www.w3.org/2000/svg" xmlns:xlink="http://www.w3.org/1999/xlink" x="0px" y="0px"
	 viewBox="0 0 32 32" style="enable-background:new 0 0 32 32;" xml:space="preserve">
<style type="text/css">
	.st0{fill:#FFFFFF;}
</style>
<path class="st0" d="M26.3,0.4H5.7C2.5,0.4,0,2.9,0,6.1v19.9c0,3.1,2.5,5.7,5.7,5.7h20.7c3.1,0,5.7-2.5,5.7-5.7V6.1
	C32,2.9,29.5,0.4,26.3,0.4z M30.7,25.4c0,2.7-2.2,4.9-4.8,4.9H6.2c-2.7,0-4.8-2.2-4.8-4.8V6.6c0-2.7,2.2-4.8,4.8-4.8h19.6
	c2.7,0,4.8,2.2,4.8,4.8V25.4z M12.7,15l3.7,7.2c0.1,0.1,0,0.2-0.1,0.2H14c-0.1,0-0.2,0-0.3-0.2c-0.9-1.8-1.7-3.5-2.6-5.4h0
	c-0.8,1.8-1.7,3.7-2.5,5.4c-0.1,0.1-0.1,0.1-0.2,0.1H6.1c-0.1,0-0.1-0.1-0.1-0.2l3.7-7l-3.5-7C6.1,8.1,6.1,8,6.2,8h2.3
	c0.1,0,0.2,0,0.2,0.1c0.8,1.8,1.7,3.6,2.5,5.3h0c0.8-1.8,1.6-3.6,2.5-5.3C13.8,8.1,13.8,8,14,8h2.1c0.1,0,0.2,0.1,0.1,0.2L12.7,15z
	 M17,17.2c0-3.1,2.1-5.5,5.3-5.5c0.3,0,0.4,0,0.7,0V8.1c0-0.1,0.1-0.1,0.1-0.1h2.1c0.1,0,0.1,0,0.1,0.1v12.2c0,0.4,0,0.8,0.1,1.3
	c0,0.1,0,0.1-0.1,0.2c-1.1,0.5-2.3,0.8-3.4,0.8C19.1,22.6,17,20.8,17,17.2z M23.1,13.8c-0.2-0.1-0.5-0.1-0.8-0.1
	c-1.7,0-2.9,1.3-2.9,3.4c0,2.5,1.2,3.4,2.7,3.4c0.3,0,0.7,0,0.9-0.1V13.8z"/>
</svg>
