<?xml version="1.0" encoding="utf-8"?>
<!-- Generator: Adobe Illustrator 25.2.3, SVG Export Plug-In . SVG Version: 6.00 Build 0)  -->
<svg version="1.1" xmlns="http://www.w3.org/2000/svg" xmlns:xlink="http://www.w3.org/1999/xlink" x="0px" y="0px"
	 viewBox="0 0 1920 1080" style="enable-background:new 0 0 1920 1080;" xml:space="preserve">
<style type="text/css">
	.st0{fill:none;stroke:#FFBA00;stroke-width:10;stroke-miterlimit:10;}
	.st1{fill:#3D4557;}
	.st2{fill:none;}
	.st3{display:none;}
	.st4{display:inline;fill:#CEDE2C;}
	.st5{font-family:'Poppins-Regular';}
	.st6{font-size:83px;}
	.st7{fill:#FFFFFF;}
	.st8{font-size:135px;}
	.st9{fill:#0FADCC;}
</style>
<g id="Layer_1">
	<g>
		<line class="st0" x1="1250.5" y1="304.6" x2="718.3" y2="804.2"/>
		<line class="st0" x1="1264.2" y1="318.6" x2="732" y2="818.2"/>
		<line class="st0" x1="1277.3" y1="333.3" x2="745.1" y2="832.9"/>
		<line class="st0" x1="1291.1" y1="347.3" x2="758.9" y2="847"/>
		<line class="st0" x1="1196.9" y1="247.5" x2="664.7" y2="747.2"/>
		<line class="st0" x1="1210.6" y1="261.6" x2="678.4" y2="761.2"/>
		<line class="st0" x1="1223.7" y1="276.3" x2="691.5" y2="775.9"/>
		<line class="st0" x1="1237.5" y1="290.3" x2="705.3" y2="790"/>
		<line class="st0" x1="1357.7" y1="418.8" x2="825.5" y2="918.5"/>
		<line class="st0" x1="1371.5" y1="432.9" x2="839.3" y2="932.5"/>
		<line class="st0" x1="1384.5" y1="447.6" x2="852.3" y2="947.2"/>
		<line class="st0" x1="1398.3" y1="461.6" x2="866.1" y2="961.2"/>
		<line class="st0" x1="1304.1" y1="361.8" x2="771.9" y2="861.4"/>
		<line class="st0" x1="1317.9" y1="375.8" x2="785.7" y2="875.5"/>
		<line class="st0" x1="1330.9" y1="390.6" x2="798.7" y2="890.2"/>
		<line class="st0" x1="1344.7" y1="404.6" x2="812.5" y2="904.2"/>
		<line class="st0" x1="1036.6" y1="76.8" x2="504.4" y2="576.4"/>
		<line class="st0" x1="1050.4" y1="90.8" x2="518.2" y2="590.5"/>
		<line class="st0" x1="1063.4" y1="105.5" x2="531.2" y2="605.2"/>
		<line class="st0" x1="1077.2" y1="119.6" x2="545" y2="619.2"/>
		<line class="st0" x1="983" y1="19.8" x2="450.8" y2="519.4"/>
		<line class="st0" x1="996.8" y1="33.8" x2="464.6" y2="533.4"/>
		<line class="st0" x1="1009.8" y1="48.5" x2="477.6" y2="548.2"/>
		<line class="st0" x1="1023.6" y1="62.6" x2="491.4" y2="562.2"/>
		<line class="st0" x1="1143.8" y1="191" x2="611.6" y2="690.7"/>
		<line class="st0" x1="1157.6" y1="205.1" x2="625.4" y2="704.7"/>
		<line class="st0" x1="1170.7" y1="219.8" x2="638.5" y2="719.4"/>
		<line class="st0" x1="1184.5" y1="233.8" x2="652.3" y2="733.5"/>
		<line class="st0" x1="1090.2" y1="134" x2="558" y2="633.7"/>
		<line class="st0" x1="1104" y1="148.1" x2="571.8" y2="647.7"/>
		<line class="st0" x1="1117.1" y1="162.8" x2="584.9" y2="662.4"/>
		<line class="st0" x1="1130.9" y1="176.8" x2="598.7" y2="676.5"/>
		<line class="st0" x1="1450.9" y1="518.1" x2="918.7" y2="1017.7"/>
		<line class="st0" x1="1464.7" y1="532.1" x2="932.5" y2="1031.8"/>
		<line class="st0" x1="1477.7" y1="546.8" x2="945.5" y2="1046.5"/>
		<line class="st0" x1="1491.5" y1="560.9" x2="959.3" y2="1060.5"/>
		<line class="st0" x1="1411.1" y1="475.1" x2="878.9" y2="974.8"/>
		<line class="st0" x1="1424.1" y1="489.8" x2="891.9" y2="989.5"/>
		<line class="st0" x1="1437.9" y1="503.9" x2="905.7" y2="1003.5"/>
	</g>
	<polygon class="st1" points="1595,662 585,830 624,194 1542,118 	"/>
	<rect x="615" y="293" class="st2" width="953" height="323.9"/>
	<text transform="matrix(1 0 0 1 659.6152 354.4189)" class="st3"><tspan x="0" y="0" class="st4 st5 st6">Communication and </tspan><tspan x="48.8" y="99.6" class="st4 st5 st6">Multimedia Design</tspan><tspan x="226.9" y="199.2" class="st4 st5 st6">Den Haag</tspan></text>
	<rect x="683.9" y="271.3" class="st2" width="824.5" height="339.7"/>
	<text transform="matrix(1 0 0 1 938.7539 371.248)"><tspan x="0" y="0" class="st7 st5 st8">CMD</tspan><tspan x="-176" y="162" class="st7 st5 st8">Den Haag</tspan></text>
</g>
<g id="Layer_2">
	<g>
		<polygon class="st9" points="349.7,747 296.7,747 306.7,725.3 359.7,725.3 		"/>
		<polyline class="st9" points="370,725.3 423,725.3 413,747 360,747 		"/>
		<polygon class="st9" points="476.2,746.9 423.2,746.9 433.2,725.2 486.2,725.2 		"/>
		<polyline class="st9" points="496.5,725.2 549.5,725.2 539.5,746.9 486.5,746.9 		"/>
		<polygon class="st9" points="603,746.9 550,746.9 560,725.3 613,725.3 		"/>
		<polyline class="st9" points="623.3,725.3 676.3,725.3 666.3,746.9 613.3,746.9 		"/>
		<polygon class="st9" points="729.5,746.8 676.5,746.8 686.5,725.1 739.5,725.1 		"/>
		<polyline class="st9" points="749.8,725.1 802.8,725.1 792.8,746.8 739.8,746.8 		"/>
		<polygon class="st9" points="855.5,746.9 802.5,746.9 812.5,725.2 865.5,725.2 		"/>
		<polyline class="st9" points="875.8,725.2 928.8,725.2 918.8,746.9 865.8,746.9 		"/>
		<polygon class="st9" points="982,746.7 929,746.7 939,725.1 992,725.1 		"/>
		<polyline class="st9" points="1002.4,725.1 1055.4,725.1 1045.4,746.7 992.4,746.7 		"/>
		<polygon class="st9" points="1108.8,746.8 1055.8,746.8 1065.8,725.1 1118.8,725.1 		"/>
		<polyline class="st9" points="1129.1,725.1 1182.1,725.1 1172.1,746.8 1119.1,746.8 		"/>
		<polygon class="st9" points="1235.3,746.7 1182.3,746.7 1192.3,725 1245.3,725 		"/>
		<polyline class="st9" points="1255.6,725 1308.6,725 1298.6,746.7 1245.6,746.7 		"/>
	</g>
</g>
</svg>
